<!DOCTYPE svg PUBLIC "-//W3C//DTD SVG 1.1//EN" "http://www.w3.org/Graphics/SVG/1.1/DTD/svg11.dtd">
<!-- Uploaded to: SVG Repo, www.svgrepo.com, Transformed by: SVG Repo Mixer Tools -->
<svg width="800px" height="800px" viewBox="-102.4 -102.4 1228.80 1228.80" class="icon" version="1.1" xmlns="http://www.w3.org/2000/svg" fill="#000000" transform="rotate(0)">
<g id="SVGRepo_bgCarrier" stroke-width="0">
<path transform="translate(-102.4, -102.4), scale(38.4)" d="M16,26.71772215186673C18.4645570489724,27.6289101133361,20.632544080496206,31.655067475895816,22.898140362470066,30.324136059228344C25.283610771453898,28.922784222580237,22.087659332876363,24.39139691353941,23.73883864937751,22.17151788373321C25.30385268184526,20.06748121290735,30.25095329143568,21.93628295455595,31.005200853264114,19.424839176671046C31.72860795521449,17.01608592771553,27.87298284081058,15.61049392770963,26.298207168534802,13.64950141586407C25.329462093672653,12.443169700727402,24.22589228135494,11.39266434961438,23.470616006768456,10.042382536043228C22.546783815756978,8.390756702837542,22.948557285837676,5.89136370778,21.37264476466013,4.843588190000897C19.860967084880514,3.838520432519865,17.79577791678761,4.809859417558494,16,5.075400898780893C14.389265906025194,5.313579970463997,12.956967511696732,6.121948773800031,11.341665159259346,6.326868030803642C8.942297983195873,6.6312547224071485,5.599947095062193,4.616048065206335,4.181121016747712,6.574758524434774C2.7224636988384514,8.588456601096219,6.369512652843227,11.257903578671204,5.989775224682431,13.715231517855159C5.649748025422823,15.915589646549531,2.439616374551795,16.923357388469064,2.2392572147713405,19.140799743489776C2.048655279809533,21.25025560263959,3.3085122582702113,23.49225927430978,4.989990156189771,24.780189861771966C6.682273949282655,26.07639724129657,9.08758516210917,25.6248756323058,11.186986054854989,25.994326439094642C12.805076026658314,26.27907655404663,14.458994133003667,26.147986509047595,16,26.71772215186673" fill="#ddef5a" strokewidth="0"/>
</g>
<g id="SVGRepo_tracerCarrier" stroke-linecap="round" stroke-linejoin="round"/>
<g id="SVGRepo_iconCarrier">
<path d="M506.9 782.1H129.2c-10.8 0-19.5-8-19.5-17.8V259.8c0-9.8 8.8-17.8 19.5-17.8h378.4l-0.7 540.1z" fill="#326814"/>
<path d="M501.8 787.5H129.2c-13.7 0-24.9-10.4-24.9-23.2V259.8c0-12.8 11.2-23.2 24.9-23.2h372.6v10.8H129.2c-7.8 0-14.2 5.6-14.2 12.5v504.5c0 6.9 6.4 12.5 14.2 12.5h372.6v10.6z" fill="#323235"/>
<path d="M150.5 298.7h303V782h-303z" fill="#D5D9CF"/>
<path d="M458.8 787.5H145.1V293.4h313.8v494.1z m-303-10.8h292.3V304.1H155.8v472.6z" fill="#323235"/>
<path d="M506.1 782.1h388.7c10.8 0 19.5-8 19.5-17.8V259.8c0-9.8-8.8-17.8-19.5-17.8H506.1v540.1z" fill="#326814"/>
<path d="M894.8 787.5H500.7v-551h394.1c13.7 0 24.9 10.4 24.9 23.2v504.5c0.1 12.8-11.1 23.3-24.9 23.3z m-383.3-10.8h383.3c7.8 0 14.2-5.6 14.2-12.5V259.8c0-6.9-6.4-12.5-14.2-12.5H511.5v529.4z" fill="#323235"/>
<path d="M109.6 347.1h136.5c31.4 0 60.5 15.1 76.5 39.8l93.8 144.3c4.1 6.2 6.2 13.4 6.2 20.6v230.3H128.4c-10.4 0-18.8-7.7-18.8-17.2V347.1z" fill="#e4dd23"/>
<path d="M428.1 787.5H128.4c-13.3 0-24.2-10.1-24.2-22.5V341.7h141.9c33.1 0 64.1 16.2 81.1 42.2L421 528.2c4.6 7.1 7.1 15.3 7.1 23.6v235.7zM115 352.5V765c0 6.5 6 11.8 13.4 11.8h288.9v-225c0-6.2-1.8-12.3-5.3-17.7l-93.8-144.3c-15-23-42.6-37.3-72-37.3H115z" fill="#323235"/>
<path d="M109.6 606h313.1v10.8H109.6z" fill="#323235"/>
<path d="M368.3 736.9H266.4c-6.6 0-12-5.4-12-12v-52.1c0-6.6 5.4-12 12-12h101.9c6.6 0 12 5.4 12 12v52.1c0 6.6-5.4 12-12 12z" fill="#D5D9CF"/>
<path d="M368.5 742.3H266.1c-9.4 0-17.1-7.7-17.1-17.1v-52.6c0-9.4 7.7-17.1 17.1-17.1h102.4c9.4 0 17.1 7.7 17.1 17.1v52.6c0.1 9.4-7.6 17.1-17.1 17.1z m-102.4-76.1c-3.5 0-6.4 2.9-6.4 6.4v52.6c0 3.5 2.9 6.4 6.4 6.4h102.4c3.5 0 6.4-2.9 6.4-6.4v-52.6c0-3.5-2.9-6.4-6.4-6.4H266.1z" fill="#323235"/>
<path d="M560.7 316.4h310.7v403.5H560.7z" fill="#D5D9CF"/>
<path d="M876.8 725.2H555.4V311h321.4v414.2z m-310.7-10.7H866V321.8H566.1v392.7z" fill="#323235"/>
<path d="M792.4 353.1H645.5c-8.4 0-15.3-6.8-15.3-15.3v-37.9h177.4v37.9c0.1 8.5-6.8 15.3-15.2 15.3z" fill="#0cc14b"/>
<path d="M792.7 358.5H645.2c-11.2 0-20.3-9.1-20.3-20.3v-43.7H813v43.7c0 11.2-9.1 20.3-20.3 20.3z m-157.1-53.2v32.9c0 5.3 4.3 9.6 9.6 9.6h147.6c5.3 0 9.6-4.3 9.6-9.6v-32.9H635.6z" fill="#323235"/>
<path d="M811.7 441H621.8c-3 0-5.4-2.4-5.4-5.4 0-3 2.4-5.4 5.4-5.4h189.8c3 0 5.4 2.4 5.4 5.4 0 3-2.4 5.4-5.3 5.4z" fill="#323235"/>
<path d="M811.7 509.7H621.8c-3 0-5.4-2.4-5.4-5.4 0-3 2.4-5.4 5.4-5.4h189.8c3 0 5.4 2.4 5.4 5.4 0 3-2.4 5.4-5.3 5.4z" fill="#323235"/>
<path d="M811.7 578.4H621.8c-3 0-5.4-2.4-5.4-5.4s2.4-5.4 5.4-5.4h189.8c3 0 5.4 2.4 5.4 5.4s-2.4 5.4-5.3 5.4z" fill="#323235"/>
<path d="M811.7 647.1H621.8c-3 0-5.4-2.4-5.4-5.4s2.4-5.4 5.4-5.4h189.8c3 0 5.4 2.4 5.4 5.4s-2.4 5.4-5.3 5.4z" fill="#323235"/>
</g>
</svg>