<!DOCTYPE svg PUBLIC "-//W3C//DTD SVG 1.1//EN" "http://www.w3.org/Graphics/SVG/1.1/DTD/svg11.dtd">
<!-- Uploaded to: SVG Repo, www.svgrepo.com, Transformed by: SVG Repo Mixer Tools -->
<svg width="800px" height="800px" viewBox="-102.4 -102.4 1228.80 1228.80" class="icon" version="1.1" xmlns="http://www.w3.org/2000/svg" fill="#000000">
<g id="SVGRepo_bgCarrier" stroke-width="0">
<path transform="translate(-102.4, -102.4), scale(38.4)" d="M16,25.946879379451275C17.3849117048332,26.0039429620531,18.696875663409234,25.458011505616753,19.996851536878403,24.97707553166447C21.3528923634228,24.47539790137678,23.02546321904099,24.25150660802875,23.82995874062113,23.050126516740487C24.65441787822191,21.818934089405637,23.514452181051936,19.973864599145433,24.21981667405707,18.6707803368248C25.13861369447992,16.973402669742,28.37186612076774,16.632050779950912,28.348782463728796,14.70209066268759C28.32695625895191,12.87726261834676,25.370088052440334,12.64564062754771,24.13171864453879,11.305150051601233C23.187490395822504,10.283056756280377,22.67100944072241,8.989599554049043,21.964189575489776,7.790997298033233C20.903562196659667,5.992419709046693,20.6430908337915,3.5441606847120424,18.888001029957238,2.4130233982584155C17.225477357713444,1.3415440294087793,14.644055805520178,0.8887318268334261,13.031417595977757,2.0339178395690087C11.14849230361941,3.371043361633053,11.558903591099474,6.352973127789117,10.471105867484603,8.39013007580665C9.856117438503883,9.541840475498587,8.604840446986149,10.226314663959435,8.030705945051603,11.398925932124254C7.472132249715456,12.539755837041376,7.853084113908125,13.986532211771928,7.198113181454612,15.074884417041742C5.989641919002657,17.082977140436203,2.6872202862278773,17.99371717319331,2.651690889990048,20.337128541247367C2.622243947351606,22.279359691797794,5.293754133177572,23.2438927909474,7.062072033806896,24.04774648840303C8.633225105112553,24.761971688062175,10.458966681328963,24.294932337747124,12.147151987150165,24.653638321124493C13.486907606617063,24.938309888463163,14.63149590139436,25.890491852073765,16,25.946879379451275" fill="#ddef5a" strokewidth="0"/>
</g>
<g id="SVGRepo_tracerCarrier" stroke-linecap="round" stroke-linejoin="round"/>
<g id="SVGRepo_iconCarrier">
<path d="M604.5 701v-16.3h-185V701c0 22.4-4.6 44.6-13.6 65.2l-17.3 39.7h246.6L618 766.2c-8.9-20.6-13.5-42.8-13.5-65.2z" fill="#D5D9CF"/>
<path d="M643.7 811.4H380.3l20.6-47.4c8.7-20 13.1-41.2 13.1-63v-21.8h196V701c0 21.8 4.4 43 13.1 63l20.6 47.4z m-246.6-11H627l-13.9-32c-9.3-21.4-14-44.1-14-67.4v-10.8H425V701c0 23.3-4.7 46-14 67.4l-13.9 32z" fill="#323235"/>
<path d="M854.1 684.7H169.9c-18.2 0-33-14.8-33-33V211c0-18.2 14.8-33 33-33H854c18.2 0 33 14.8 33 33v440.6c0.1 18.3-14.7 33.1-32.9 33.1z" fill="#326814"/>
<path d="M854.1 690.2H169.9c-21.2 0-38.5-17.3-38.5-38.5V211c0-21.2 17.3-38.5 38.5-38.5H854c21.2 0 38.5 17.3 38.5 38.5v440.6c0.1 21.3-17.2 38.6-38.4 38.6zM169.9 183.5c-15.2 0-27.5 12.3-27.5 27.5v440.6c0 15.2 12.3 27.5 27.5 27.5H854c15.2 0 27.5-12.3 27.5-27.5V211c0-15.2-12.3-27.5-27.5-27.5H169.9z" fill="#323235"/>
<path d="M195.6 230.5h632.8v347.2H195.6z" fill="#D5D9CF"/>
<path d="M833.9 583.2H190.1V225h643.8v358.2z m-632.8-11h621.8V236H201.1v336.2z" fill="#323235"/>
<path d="M512 633m-25.7 0a25.7 25.7 0 1 0 51.4 0 25.7 25.7 0 1 0-51.4 0Z" fill="#e4dd23"/>
<path d="M512 664.1c-17.2 0-31.2-14-31.2-31.2s14-31.2 31.2-31.2 31.2 14 31.2 31.2-14 31.2-31.2 31.2z m0-51.3c-11.1 0-20.2 9.1-20.2 20.2s9.1 20.2 20.2 20.2 20.2-9.1 20.2-20.2-9.1-20.2-20.2-20.2z" fill="#323235"/>
<path d="M729.5 643.5h-49.4c-5.5 0-9.9-4.5-9.9-9.9v-1.7c0-5.5 4.5-9.9 9.9-9.9h49.4c5.5 0 9.9 4.5 9.9 9.9v1.7c0 5.5-4.4 9.9-9.9 9.9z" fill="#e4dd23"/>
<path d="M729.5 649h-49.4c-8.5 0-15.4-6.9-15.4-15.4v-1.7c0-8.5 6.9-15.4 15.4-15.4h49.4c8.5 0 15.4 6.9 15.4 15.4v1.7c0 8.5-6.9 15.4-15.4 15.4z m-49.3-21.5c-2.4 0-4.4 2-4.4 4.4v1.7c0 2.4 2 4.4 4.4 4.4h49.4c2.4 0 4.4-2 4.4-4.4v-1.7c0-2.4-2-4.4-4.4-4.4h-49.4z" fill="#323235"/>
<path d="M823.4 643.5H774c-5.5 0-9.9-4.5-9.9-9.9v-1.7c0-5.5 4.5-9.9 9.9-9.9h49.4c5.5 0 9.9 4.5 9.9 9.9v1.7c0 5.5-4.5 9.9-9.9 9.9z" fill="#e4dd23"/>
<path d="M823.4 649H774c-8.5 0-15.4-6.9-15.4-15.4v-1.7c0-8.5 6.9-15.4 15.4-15.4h49.4c8.5 0 15.4 6.9 15.4 15.4v1.7c0 8.5-6.9 15.4-15.4 15.4zM774 627.5c-2.4 0-4.4 2-4.4 4.4v1.7c0 2.4 2 4.4 4.4 4.4h49.4c2.4 0 4.4-2 4.4-4.4v-1.7c0-2.4-2-4.4-4.4-4.4H774z" fill="#323235"/>
<path d="M676.4 846H347.6v-19.6c0-11.3 9.2-20.5 20.5-20.5h287.8c11.3 0 20.5 9.2 20.5 20.5V846z" fill="#0cc14b"/>
<path d="M681.9 851.5H342.1v-25.1c0-14.3 11.7-26 26-26h287.8c14.3 0 26 11.7 26 26v25.1z m-328.8-11h317.8v-14.1c0-8.3-6.7-15-15-15H368.1c-8.3 0-15 6.7-15 15v14.1z" fill="#323235"/>
<path d="M300 829.2H187V591.1c0-10.6 8.6-19.2 19.2-19.2h72.7c11.7 0 21.2 9.5 21.2 21.2v236.1z" fill="#e4dd23"/>
<path d="M305.5 834.7h-124V591.1c0-13.6 11.1-24.7 24.7-24.7h72.7c14.7 0 26.7 12 26.7 26.7v241.6z m-113-11h102V593.1c0-8.6-7-15.7-15.7-15.7h-72.7c-7.5 0-13.7 6.1-13.7 13.7v232.6z" fill="#323235"/>
<path d="M300 604.6H187v-20.9c0-16.7 13.5-30.2 30.2-30.2h52.6c16.7 0 30.2 13.5 30.2 30.2v20.9z" fill="#0cc14b"/>
<path d="M305.5 610.1h-124v-26.4c0-19.7 16-35.7 35.7-35.7h52.6c19.7 0 35.7 16 35.7 35.7v26.4z m-113-11h102v-15.4c0-13.6-11.1-24.7-24.7-24.7h-52.6c-13.6 0-24.7 11.1-24.7 24.7v15.4z" fill="#323235"/>
<path d="M289.5 845.9h-92.1c-5.8 0-10.5-4.7-10.5-10.5v-22.8h113v22.8c0.1 5.8-4.6 10.5-10.4 10.5z" fill="#326814"/>
<path d="M289.5 851.4h-92.1c-8.8 0-16-7.2-16-16v-28.3h124v28.3c0.1 8.9-7.1 16-15.9 16z m-97-33.2v17.3c0 2.7 2.2 5 5 5h92.1c2.7 0 5-2.2 5-5v-17.3H192.5z" fill="#323235"/>
</g>
</svg>