<!DOCTYPE svg PUBLIC "-//W3C//DTD SVG 1.1//EN" "http://www.w3.org/Graphics/SVG/1.1/DTD/svg11.dtd">
<!-- Uploaded to: SVG Repo, www.svgrepo.com, Transformed by: SVG Repo Mixer Tools -->
<svg width="800px" height="800px" viewBox="-102.4 -102.4 1228.80 1228.80" class="icon" version="1.1" xmlns="http://www.w3.org/2000/svg" fill="#061a05" transform="rotate(45)" stroke="#061a05">
<g id="SVGRepo_bgCarrier" stroke-width="0" transform="translate(0,0), scale(1)">
<path transform="translate(-102.4, -102.4), scale(38.4)" d="M16,27.060694446020268C18.52016398639623,27.002491986767534,20.761960833632997,25.591314205474266,22.604585810621266,23.871038867404636C24.357318247722134,22.234687236750226,25.142598206455848,20.009467588838554,25.965241922472106,17.757141020218928C27.018260292154352,14.874068792103879,29.490047380776115,11.754896322195304,28.01252904485625,9.06456312230405C26.53721685895289,6.378246981618791,22.417453788002767,7.3200080471258016,19.58731808423366,6.143924567166806C16.520994394280052,4.869691451362984,14.141199265494892,1.2957060189566973,10.88518904222745,1.9471723887408459C7.5679112738107825,2.6108972412959415,5.435951426695156,6.046883111452919,4.245496633090724,9.213534316924559C3.1845939499306883,12.035572397299687,3.928044263394035,15.097684351159453,4.864067502344913,17.963565354684793C5.669026785351223,20.42815963160127,7.126481135169575,22.541844783687186,9.134378221033707,24.182129420476123C11.115935750128612,25.80089683379153,13.44197574141138,27.11977127732239,16,27.060694446020268" fill="#def056" strokewidth="0"/>
</g>
<g id="SVGRepo_tracerCarrier" stroke-linecap="round" stroke-linejoin="round" stroke="#CCCCCC" stroke-width="2.048"/>
<g id="SVGRepo_iconCarrier">
<path d="M879.3 794.4H144.7c-17.7 0-32.1-14.4-32.1-32.1V261.6c0-17.7 14.4-32.1 32.1-32.1h734.5c17.7 0 32.1 14.4 32.1 32.1v500.7c0 17.8-14.3 32.1-32 32.1z" fill="#346911"/>
<path d="M879.3 799.9H144.7c-20.7 0-37.6-16.8-37.6-37.6V261.6c0-20.7 16.8-37.6 37.6-37.6h734.5c20.7 0 37.6 16.8 37.6 37.6v500.7c0 20.8-16.8 37.6-37.5 37.6zM144.7 235.1c-14.6 0-26.6 11.9-26.6 26.6v500.7c0 14.6 11.9 26.6 26.6 26.6h734.5c14.6 0 26.6-11.9 26.6-26.6V261.6c0-14.6-11.9-26.6-26.6-26.6H144.7z" fill="#333336"/>
<path d="M830.4 554.8l29.9-10.2c7.7-2.6 12.9-9.8 12.9-17.9V394.1c0-8.1-5.2-15.3-12.9-17.9L830.4 366v188.8z" fill="#e5de15"/>
<path d="M824.9 562.4V358.3l37.2 12.6c9.9 3.4 16.6 12.7 16.6 23.1v132.6c0 10.5-6.7 19.8-16.6 23.2l-37.2 12.6z m11-188.7v173.4l22.7-7.7c5.5-1.9 9.1-7 9.1-12.7V394.1c0-5.8-3.7-10.9-9.1-12.7l-22.7-7.7z" fill="#333336"/>
<path d="M830.4 652.2l29.9-10.2c7.7-2.6 12.9-9.8 12.9-17.9V491.6c0-8.1-5.2-15.3-12.9-17.9l-29.9-10.2v188.7z" fill="#14c248"/>
<path d="M824.9 659.9V455.8l37.2 12.6c9.9 3.4 16.6 12.7 16.6 23.1v132.6c0 10.5-6.7 19.8-16.6 23.2l-37.2 12.6z m11-188.8v173.4l22.7-7.7c5.5-1.9 9.1-7 9.1-12.7V491.6c0-5.8-3.7-10.9-9.1-12.7l-22.7-7.8z" fill="#333336"/>
<path d="M830.4 719.7l29.9-10.2c7.7-2.6 12.9-9.8 12.9-17.9V589c0-8.1-5.2-15.3-12.9-17.9l-29.9-10.2v158.8z" fill="#e5de15"/>
<path d="M824.9 727.4V553.3l37.2 12.6c9.9 3.4 16.6 12.7 16.6 23.1v102.6c0 10.5-6.7 19.8-16.6 23.2l-37.2 12.6z m11-158.8V712l22.7-7.7c5.5-1.9 9.1-7 9.1-12.7V589c0-5.8-3.7-10.9-9.1-12.7l-22.7-7.7z" fill="#333336"/>
<path d="M203.1 450.6l-38.7-13.8c-9.4-3.3-15.7-12.2-15.7-22.2v-95c0-9.8 8-17.8 17.8-17.8h36.6v148.8z" fill="#e5de15"/>
<path d="M208.6 458.4L162.5 442c-11.6-4.1-19.3-15.1-19.3-27.4v-95c0-12.9 10.5-23.3 23.3-23.3h42.1v162.1z m-42.1-151.1c-6.8 0-12.3 5.5-12.3 12.3v95c0 7.6 4.8 14.5 12 17l31.4 11.2V307.3h-31.1z" fill="#333336"/>
<path d="M501.3 282.4H199.8c-8.9 0-16.1 7.2-16.1 16.1v426.9c0 8.9 7.2 16.1 16.1 16.1h301.5V282.4z" fill="#D5D9CF"/>
<path d="M506.8 747.1h-307c-11.9 0-21.6-9.7-21.6-21.6v-427c0-11.9 9.7-21.6 21.6-21.6h307v470.2z m-307-459.2c-5.9 0-10.6 4.8-10.6 10.6v426.9c0 5.9 4.8 10.6 10.6 10.6h296V287.9h-296z" fill="#333336"/>
<path d="M824.2 282.4H522.7v459.1h301.5c8.9 0 16.1-7.2 16.1-16.1V298.5c0-8.9-7.2-16.1-16.1-16.1z" fill="#D5D9CF"/>
<path d="M824.2 747.1h-307V276.9h307c11.9 0 21.6 9.7 21.6 21.6v426.9c0 12-9.7 21.7-21.6 21.7z m-296-11h296c5.9 0 10.6-4.8 10.6-10.6v-427c0-5.9-4.8-10.6-10.6-10.6h-296v448.2zM466 392.6c-13.2 0-23.9-10.7-23.9-23.9s10.7-23.9 23.9-23.9 23.9 10.7 23.9 23.9-10.7 23.9-23.9 23.9z m0-36.8c-7.1 0-12.9 5.8-12.9 12.9s5.8 12.9 12.9 12.9 12.9-5.8 12.9-12.9-5.8-12.9-12.9-12.9z" fill="#333336"/>
<path d="M558.5 392.6c-13.2 0-23.9-10.7-23.9-23.9s10.7-23.9 23.9-23.9 23.9 10.7 23.9 23.9-10.7 23.9-23.9 23.9z m0-36.8c-7.1 0-12.9 5.8-12.9 12.9s5.8 12.9 12.9 12.9 12.9-5.8 12.9-12.9-5.8-12.9-12.9-12.9zM466 460.4c-13.2 0-23.9-10.7-23.9-23.9s10.7-23.9 23.9-23.9 23.9 10.7 23.9 23.9-10.7 23.9-23.9 23.9z m0-36.8c-7.1 0-12.9 5.8-12.9 12.9s5.8 12.9 12.9 12.9 12.9-5.8 12.9-12.9-5.8-12.9-12.9-12.9zM558.5 460.4c-13.2 0-23.9-10.7-23.9-23.9s10.7-23.9 23.9-23.9 23.9 10.7 23.9 23.9-10.7 23.9-23.9 23.9z m0-36.8c-7.1 0-12.9 5.8-12.9 12.9s5.8 12.9 12.9 12.9 12.9-5.8 12.9-12.9-5.8-12.9-12.9-12.9zM466 625.9c-13.2 0-23.9-10.7-23.9-23.9s10.7-23.9 23.9-23.9 23.9 10.7 23.9 23.9-10.7 23.9-23.9 23.9z m0-36.8c-7.1 0-12.9 5.8-12.9 12.9s5.8 12.9 12.9 12.9 12.9-5.8 12.9-12.9-5.8-12.9-12.9-12.9zM558.5 625.9c-13.2 0-23.9-10.7-23.9-23.9s10.7-23.9 23.9-23.9 23.9 10.7 23.9 23.9-10.7 23.9-23.9 23.9z m0-36.8c-7.1 0-12.9 5.8-12.9 12.9s5.8 12.9 12.9 12.9 12.9-5.8 12.9-12.9-5.8-12.9-12.9-12.9zM466 693.7c-13.2 0-23.9-10.7-23.9-23.9s10.7-23.9 23.9-23.9 23.9 10.7 23.9 23.9-10.7 23.9-23.9 23.9z m0-36.8c-7.1 0-12.9 5.8-12.9 12.9s5.8 12.9 12.9 12.9 12.9-5.8 12.9-12.9-5.8-12.9-12.9-12.9zM558.5 693.7c-13.2 0-23.9-10.7-23.9-23.9s10.7-23.9 23.9-23.9 23.9 10.7 23.9 23.9-10.7 23.9-23.9 23.9z m0-36.8c-7.1 0-12.9 5.8-12.9 12.9s5.8 12.9 12.9 12.9 12.9-5.8 12.9-12.9-5.8-12.9-12.9-12.9z" fill="#333336"/>
<path d="M558.5 374.2H466c-3 0-5.5-2.5-5.5-5.5s2.5-5.5 5.5-5.5h92.5c3 0 5.5 2.5 5.5 5.5s-2.5 5.5-5.5 5.5zM558.5 441.9H466c-3 0-5.5-2.5-5.5-5.5s2.5-5.5 5.5-5.5h92.5c3 0 5.5 2.5 5.5 5.5s-2.5 5.5-5.5 5.5zM558.5 606.6H466c-3 0-5.5-2.5-5.5-5.5s2.5-5.5 5.5-5.5h92.5c3 0 5.5 2.5 5.5 5.5s-2.5 5.5-5.5 5.5zM558.5 675.8H466c-3 0-5.5-2.5-5.5-5.5s2.5-5.5 5.5-5.5h92.5c3 0 5.5 2.5 5.5 5.5s-2.5 5.5-5.5 5.5z" fill="#333336"/>
<path d="M373.7 230.1h28.9v562.8h-28.9z" fill="#e5de15"/>
<path d="M408.1 798.4h-39.9V224.6h39.9v573.8z m-28.9-11h17.9V235.6h-17.9v551.8z" fill="#333336"/>
<path d="M756.8 426.8v321.4c0 11-8.9 19.9-19.9 19.9-11 0-19.9-8.9-19.9-19.9V426.8" fill="#346911"/>
<path d="M736.9 773.6c-14 0-25.4-11.4-25.4-25.4V426.8h11v321.4c0 7.9 6.5 14.4 14.4 14.4s14.4-6.5 14.4-14.4V426.8h11v321.4c0 14-11.4 25.4-25.4 25.4z" fill="#333336"/>
<path d="M756.6 428c0.1 0 0.2-0.1 0.2-0.3L746 393.4c-2.3-9.4-15.6-9.4-18 0l-10.9 34.3c0 0.1 0.1 0.3 0.2 0.3h39.3z" fill="#e5de15"/>
<path d="M756.6 433.5h-39.3c-1.8 0-3.5-0.9-4.6-2.3-1.1-1.5-1.4-3.4-0.8-5.1l10.8-34.1c1.7-6.6 7.4-11 14.3-11 6.8 0 12.5 4.4 14.3 11l10.8 34.1c0.5 1.7 0.2 3.6-0.8 5.1s-2.9 2.3-4.7 2.3z m-32.1-11h24.8l-8.8-27.7c-0.6-2.6-2.8-2.8-3.6-2.8-0.7 0-3 0.2-3.6 2.8l-0.1 0.3-8.7 27.4z" fill="#333336"/>
<path d="M717 702.3h39.8v55c0 9.3-7.5 16.8-16.8 16.8h-6.3c-9.3 0-16.8-7.5-16.8-16.8v-55z" fill="#e5de15"/>
<path d="M740.1 779.5h-6.3c-12.3 0-22.3-10-22.3-22.3v-60.5h50.8v60.5c0 12.4-10 22.3-22.2 22.3z m-17.6-71.7v49.5c0 6.2 5.1 11.3 11.3 11.3h6.3c6.2 0 11.3-5.1 11.3-11.3v-49.5h-28.9z" fill="#333336"/>
<path d="M729.2 388.1h15.3l-6.8-27.5c-0.2-0.9-1.5-0.9-1.7 0l-6.8 27.5z" fill="#346911"/>
<path d="M751.6 393.6h-29.4l8.5-34.3c0.7-2.9 3.3-4.9 6.2-4.9 2.9 0 5.5 2 6.2 4.9l8.5 34.3z m-15.3-11h1.3l-0.6-2.6-0.7 2.6z" fill="#333336"/>
</g>
</svg>